<svg width="429" height="401" viewBox="0 0 429 401" fill="none" xmlns="http://www.w3.org/2000/svg">
<path d="M429 329V45V44L384.209 60V305C318.516 318.5 248.344 357.5 216.991 401L429 329Z" fill="#20522E"/>
<path d="M383.214 60V0C300.109 32.4258 259.594 57.6268 215 122V171C251.432 115.496 290.347 92.0586 383.214 60Z" fill="#20522E"/>
<path d="M349.372 146V121C282.656 140.893 251.181 158.56 215 212V236C253.666 180.332 286.176 163.018 349.372 146Z" fill="#20522E"/>
<path d="M215 302C253.666 246.332 286.176 229.018 349.372 212V187C282.656 206.893 251.181 224.56 215 278V302Z" fill="#20522E"/>
<path d="M215 368C253.666 312.332 286.176 295.018 349.372 278V253C282.656 272.893 251.181 290.56 215 344V368Z" fill="#20522E"/>
<path d="M0 329V45V44L45 60V305C111 318.5 181.5 357.5 213 401L0 329Z" fill="#3A9454"/>
<path d="M46 60V0C129.494 32.4258 170.198 57.6268 215 122V171C178.397 115.496 139.3 92.0586 46 60Z" fill="#3A9454"/>
<path d="M80 146V121C147.028 140.893 178.65 158.56 215 212V236C176.153 180.332 143.492 163.018 80 146Z" fill="#3A9454"/>
<path d="M215 302C176.153 246.332 143.492 229.018 80 212V187C147.028 206.893 178.65 224.56 215 278V302Z" fill="#3A9454"/>
<path d="M215 368C176.153 312.332 143.492 295.018 80 278V253C147.028 272.893 178.65 290.56 215 344V368Z" fill="#3A9454"/>
</svg>
